<?xml version="1.0" encoding="UTF-8"?>
<svg width="260px" height="260px" viewBox="0 0 260 260" version="1.1" xmlns="http://www.w3.org/2000/svg" xmlns:xlink="http://www.w3.org/1999/xlink">
    <!-- Generator: Sketch 3.6 (26304) - http://www.bohemiancoding.com/sketch -->
    <title>Group 11</title>
    <desc>Created with Sketch.</desc>
    <defs></defs>
    <g id="Page-1" stroke="none" stroke-width="1" fill="none" fill-rule="evenodd">
        <g id="Group-11">
            <rect id="Rectangle-5" fill="#000000" x="0" y="0" width="260" height="260"></rect>
            <path d="M207.314865,52 L140.087297,52 L95.2689189,52 L75.1891892,52 L75.1891892,96.8183784 L95.2689189,96.8183784 L95.2689189,209.011892 L140.087297,209.011892 L140.087297,96.8183784 L207.314865,96.8183784 L207.314865,52 L207.314865,52 Z" id="Shape" fill="#F6CD23"></path>
            <path d="M184.125676,52 L116.898108,52 L72.0797297,52 L52,52 L52,96.8183784 L72.0797297,96.8183784 L72.0797297,209.011892 L116.898108,209.011892 L116.898108,96.8183784 L184.125676,96.8183784 L184.125676,52 L184.125676,52 Z" id="Shape" fill="#FFFFFF" transform="translate(118.062838, 130.505946) scale(-1, 1) translate(-118.062838, -130.505946) "></path>
            <path d="M52,52 L52,52 L52,52 L52,96.8183784 L119.227568,96.8183784 L119.227568,209.011892 L164.045946,209.011892 L164.045946,96.8183784 L184.125676,96.8183784 L184.125676,52 L164.045946,52 L119.227568,52 L52,52 Z M52,44.2 L52,44.2 L119.227568,44.2 L164.045946,44.2 L184.125676,44.2 L191.925676,44.2 L191.925676,52 L191.925676,96.8183784 L191.925676,104.618378 L184.125676,104.618378 L164.045946,104.618378 L171.845946,96.8183784 L171.845946,209.011892 L171.845946,216.811892 L164.045946,216.811892 L119.227568,216.811892 L111.427568,216.811892 L111.427568,209.011892 L111.427568,96.8183784 L119.227568,104.618378 L52,104.618378 L44.2,104.618378 L44.2,96.8183784 L44.2,52 L44.2,44.2 L52,44.2 Z" id="Shape" fill="#000000"></path>
        </g>
    </g>
</svg>
