<?xml version="1.0" encoding="UTF-8"?>
<svg width="18px" height="18px" viewBox="0 0 18 18" version="1.1" xmlns="http://www.w3.org/2000/svg" xmlns:xlink="http://www.w3.org/1999/xlink">
    <!-- Generator: Sketch 3.6 (26304) - http://www.bohemiancoding.com/sketch -->
    <title>Shape</title>
    <desc>Created with Sketch.</desc>
    <defs></defs>
    <g id="Page-1" stroke="none" stroke-width="1" fill="none" fill-rule="evenodd">
        <g id="Desktop-HD" transform="translate(-572.000000, -802.000000)" fill="#4A4A4A">
            <path d="M586.9142,802 L575.0858,802 C573.3816,802 572,803.3816 572,805.0858 L572,816.9144 C572,818.6184 573.3816,820 575.0858,820 L586.9144,820 C588.6184,820 590,818.6184 590,816.9142 L590,805.0858 C590,803.3816 588.6184,802 586.9142,802 L586.9142,802 Z M578.191,809.4394 L578.191,809.4394 C578.1922,809.4374 578.1936,809.4352 578.1952,809.4328 C578.231,809.3684 578.2694,809.3058 578.3096,809.2442 C578.3332,809.208 578.3582,809.1732 578.3832,809.138 C578.411,809.0992 578.4394,809.0612 578.4688,809.0236 C578.494,808.9912 578.5186,808.9588 578.5452,808.9276 C578.5952,808.8684 578.6474,808.811 578.7016,808.7554 C578.728,808.7284 578.7558,808.7024 578.7832,808.6762 C578.8222,808.639 578.862,808.6028 578.903,808.5676 C578.9304,808.544 578.9574,808.5202 578.9856,808.4974 C579.049,808.4462 579.1146,808.397 579.1818,808.3506 C579.2062,808.3338 579.2318,808.3182 579.2568,808.3022 C579.31,808.2676 579.3642,808.2346 579.4196,808.203 C579.4462,808.188 579.4726,808.1726 579.4996,808.1582 C579.5766,808.1176 579.6548,808.0792 579.735,808.0448 C579.7536,808.0368 579.7728,808.0302 579.7914,808.0226 C579.8602,807.9946 579.93,807.969 580.0012,807.9458 C580.0266,807.9374 580.0518,807.9292 580.0772,807.9216 C580.1656,807.8952 580.2548,807.8714 580.346,807.8526 C580.356,807.8504 580.3666,807.8492 580.3766,807.8472 C580.4604,807.8306 580.5456,807.8182 580.6314,807.8082 C580.6568,807.8054 580.6822,807.8028 580.7074,807.8004 C580.8038,807.7916 580.9012,807.7856 580.9998,807.7856 C581.0984,807.7856 581.1956,807.7916 581.2922,807.8004 C581.3174,807.8028 581.3428,807.8054 581.368,807.8082 C581.4542,807.818 581.5392,807.8306 581.623,807.8472 C581.6332,807.8492 581.6438,807.8504 581.6536,807.8526 C581.7448,807.8714 581.834,807.8952 581.9224,807.9216 C581.9478,807.9294 581.9728,807.9376 581.9982,807.9458 C582.0694,807.9692 582.1396,807.995 582.2086,808.0228 C582.2274,808.0304 582.2462,808.0368 582.2644,808.0448 C582.3446,808.0792 582.423,808.1176 582.5002,808.1584 C582.5268,808.1724 582.553,808.1876 582.5794,808.2024 C582.6354,808.234 582.6902,808.2676 582.7442,808.3024 C582.7684,808.3184 582.7936,808.3334 582.8174,808.35 C582.8852,808.3966 582.951,808.446 583.0148,808.4976 C583.0424,808.52 583.069,808.5434 583.0958,808.5666 C583.1372,808.6024 583.1778,808.6392 583.2174,808.677 C583.2442,808.7028 583.2716,808.728 583.2972,808.7546 C583.352,808.8104 583.4044,808.8684 583.455,808.9282 C583.4808,808.9586 583.505,808.9904 583.5296,809.022 C583.5596,809.0604 583.5888,809.0994 583.6172,809.1392 C583.6418,809.1736 583.6664,809.208 583.6896,809.2434 C584.02,809.7486 584.2138,810.3514 584.2138,811 C584.2138,812.7748 582.7744,814.2142 580.9996,814.2142 C579.2244,814.2142 577.7854,812.7748 577.7854,811 C577.7858,810.4332 577.9336,809.902 578.191,809.4394 L578.191,809.4394 Z M588.0714,815.955 C588.0714,817.2048 587.0582,818.2176 585.8086,818.2176 L576.1914,818.2176 C574.9416,818.2176 573.9286,817.2048 573.9286,815.955 L573.9286,809.4394 L576.0998,809.4394 C575.943,809.9318 575.8572,810.456 575.8572,811 C575.8572,813.84 578.16,816.1428 581,816.1428 C583.84,816.1428 586.1428,813.84 586.1428,811 C586.1428,810.4558 586.057,809.9318 585.9002,809.4394 L588.0714,809.4394 L588.0714,815.955 L588.0714,815.955 Z M588.0714,805.6 C588.0714,805.742 587.9564,805.8572 587.8142,805.8572 L586.4,805.8572 C586.2578,805.8572 586.1428,805.7422 586.1428,805.6 L586.1428,804.1858 C586.1428,804.0438 586.2578,803.9286 586.4,803.9286 L587.8142,803.9286 C587.9564,803.9286 588.0714,804.0438 588.0714,804.1858 L588.0714,805.6 L588.0714,805.6 Z" id="Shape"></path>
        </g>
    </g>
</svg>