<?xml version="1.0" encoding="UTF-8"?>
<svg width="14px" height="14px" viewBox="0 0 14 14" version="1.1" xmlns="http://www.w3.org/2000/svg" xmlns:xlink="http://www.w3.org/1999/xlink">
    <!-- Generator: Sketch 3.6 (26304) - http://www.bohemiancoding.com/sketch -->
    <title>Group 4</title>
    <desc>Created with Sketch.</desc>
    <defs></defs>
    <g id="Page-1" stroke="none" stroke-width="1" fill="none" fill-rule="evenodd">
        <g id="Desktop-HD" transform="translate(-548.000000, -803.000000)" fill="#F6CD23">
            <g id="Group-4" transform="translate(548.000000, 803.000000)">
                <path d="M0,7 C0,3.140375 3.140375,0 7,0 C10.859625,0 14,3.140375 14,7 C14,7.475125 13.951875,7.95025 13.857375,8.4105 C13.556375,9.8455 12.16075,10.759875 10.74675,10.462375 C10.06075,10.31975 9.471,9.918125 9.086875,9.331 C8.70275,8.74475 10.1495514,7.65155029 10.1495514,7.93075562 C10.1495514,8.20996094 10.875375,8.701875 11.10375,8.75 C11.5745,8.84275 12.04,8.544375 12.13975,8.071875 C12.214125,7.713125 12.25,7.357875 12.25,7 C12.25,4.104625 9.895375,1.75 7,1.75 C4.104625,1.75 1.75,4.104625 1.75,7 C1.75,9.895375 4.104625,12.25 7,12.25 C7.6195,12.25 8.227625,12.14325 8.806,11.9315 C9.260125,11.767 9.7615,11.998 9.92775,12.453875 C10.093125,12.908 9.860375,13.41025 9.405375,13.575625 C8.635375,13.857375 7.825125,14 7,14 C3.140375,14 0,10.859625 0,7 Z" id="Shape"></path>
                <path d="M7,10.5 C5.06975,10.5 3.5,8.93025 3.5,7 C3.5,5.06975 5.06975,3.5 7,3.5 C8.93025,3.5 10.5,5.06975 10.5,7 C10.5,8.93025 8.93025,10.5 7,10.5 Z M7,5.25 C6.034875,5.25 5.25,6.034875 5.25,7 C5.25,7.965125 6.034875,8.75 7,8.75 C7.965125,8.75 8.75,7.965125 8.75,7 C8.75,6.034875 7.965125,5.25 7,5.25 Z" id="Combined-Shape"></path>
            </g>
        </g>
    </g>
</svg>