<?xml version="1.0" encoding="UTF-8"?>
<svg width="164px" height="173px" viewBox="0 0 164 173" version="1.1" xmlns="http://www.w3.org/2000/svg" xmlns:xlink="http://www.w3.org/1999/xlink">
    <!-- Generator: Sketch 3.6 (26304) - http://www.bohemiancoding.com/sketch -->
    <title>Group 11</title>
    <desc>Created with Sketch.</desc>
    <defs></defs>
    <g id="Page-1" stroke="none" stroke-width="1" fill="none" fill-rule="evenodd">
        <g id="Group-11">
            <path d="M163.314865,8 L96.0872973,8 L51.2689189,8 L31.1891892,8 L31.1891892,52.8183784 L51.2689189,52.8183784 L51.2689189,165.011892 L96.0872973,165.011892 L96.0872973,52.8183784 L163.314865,52.8183784 L163.314865,8 L163.314865,8 Z" id="Shape" fill="#F6CD23"></path>
            <path d="M140.125676,8 L72.8981081,8 L28.0797297,8 L8,8 L8,52.8183784 L28.0797297,52.8183784 L28.0797297,165.011892 L72.8981081,165.011892 L72.8981081,52.8183784 L140.125676,52.8183784 L140.125676,8 L140.125676,8 Z" id="Shape" fill="#FFFFFF" transform="translate(74.062838, 86.505946) scale(-1, 1) translate(-74.062838, -86.505946) "></path>
            <path d="M8,8 L8,8 L8,8 L8,52.8183784 L75.2275676,52.8183784 L75.2275676,165.011892 L120.045946,165.011892 L120.045946,52.8183784 L140.125676,52.8183784 L140.125676,8 L120.045946,8 L75.2275676,8 L8,8 Z M8,0.2 L75.2275676,0.2 L120.045946,0.2 L140.125676,0.2 L147.925676,0.2 L147.925676,8 L147.925676,52.8183784 L147.925676,60.6183784 L140.125676,60.6183784 L127.845943,60.6183769 L127.845946,165.011892 L127.845946,172.811892 L120.045946,172.811892 L75.2275676,172.811892 L67.4275676,172.811892 L67.4275676,165.011892 L67.4275696,60.6183769 L8,60.6183784 L0.2,60.6183784 L0.2,52.8183784 L0.2,8 L0.2,0.2 L8,0.2 Z" id="Shape" fill="#000000"></path>
        </g>
    </g>
</svg>